# xmcd
#
# Track frame offsets:
# 150
# 23574
# 59981
# 78599
# 104965
# 134487
# 156478
# 194260
# 212419
# 248987
# 275865
# 292053
#
# Disc length: 4248 seconds
#
#
# Revision: 5
# Processed by: cddbd v1.5.2PL0 Copyright (c) Steve Scherf et al.
# Submitted via: FreeRIP 2.951 
#
DISCID=c810960c
DTITLE=Dire Straits - The very best of
DYEAR=1900
DGENRE=Acoustic
TTITLE0=So far away
TTITLE1=Money for nothing
TTITLE2=Walk of live
TTITLE3=Sultans of swing
TTITLE4=You latest trick
TTITLE5=Brother in arms
TTITLE6=Why worry
TTITLE7=Down to the waterline
TTITLE8=Tunnel of love
TTITLE9=Romeo and Juliet
TTITLE10=One world
TTITLE11=Private investigations
EXTD=
EXTT0=
EXTT1=
EXTT2=
EXTT3=
EXTT4=
EXTT5=
EXTT6=
EXTT7=
EXTT8=
EXTT9=
EXTT10=
EXTT11=
PLAYORDER=
